<svg width="120" height="64" viewBox="0 0 120 64" fill="none" xmlns="http://www.w3.org/2000/svg">
<path d="M80.0574 0.0546799C77.1778 0.590019 75.0599 1.3838 73.1835 2.62061C70.304 4.55891 68.409 7.14331 67.703 10.1707C67.1829 12.3121 67.4801 14.7304 68.5576 17.4993C69.4122 19.6592 69.9138 20.3791 71.5673 21.8928C74.9113 24.8833 78.4411 26.4155 85.2035 27.7446L87.7487 28.2615L86.4482 29.4429C84.6647 31.0674 82.5283 32.7104 80.3361 34.1502C75.4315 37.3069 68.4833 40.242 65.3436 40.482C64.6563 40.5374 63.3186 40.8327 62.3712 41.1281C61.4237 41.4235 60.532 41.6634 60.4205 41.6634C59.9746 41.6634 60.179 41.9957 60.9407 42.568C61.9253 43.2695 62.1482 43.251 66.6813 41.9957C73.7966 40.039 82.1939 35.2763 87.6929 30.0706L89.3649 28.483L91.3528 28.723C96.1645 29.3137 100.846 30.569 103.949 32.1196C108.593 34.4456 111.826 38.1745 113.052 42.6049C113.535 44.3217 113.479 47.9029 112.959 49.8597C110.711 58.2589 102.722 62.7816 92.226 61.6002C86.9312 60.991 80.912 58.702 74.0753 54.6408C72.2732 53.5701 67.7588 50.4504 65.8453 48.9736C58.8971 43.5279 56.1847 41.3496 48.2891 34.8333C46.5056 33.3565 44.7778 31.9535 44.462 31.6951C44.1276 31.4366 42.79 30.3659 41.4895 29.2953C34.3928 23.5358 30.157 20.8775 26.4228 19.8991C24.0077 19.253 21.0538 19.29 18.5272 19.9914L17.3939 20.3237L18.9545 20.7114C20.9052 21.2098 21.8526 21.6528 23.4318 22.8527C25.6425 24.4957 25.4568 23.425 25.401 34.1318L25.3453 43.4171L21.6297 43.5464C13.7712 43.8048 1.23111 45.0785 0.172163 45.7246C-0.0507723 45.8723 -0.0507723 45.9277 0.135007 46.1308C0.487989 46.4815 4.92812 46.3892 11.3561 45.9277C19.0845 45.3554 25.1224 45.0047 25.2896 45.097C25.4939 45.2262 25.4753 55.8776 25.2524 58.3697C24.9923 61.471 24.5836 62.3571 22.8373 63.4647L22.0013 64L22.9302 63.9077C25.4939 63.6308 31.1788 62.8739 31.6618 62.7263L32.2191 62.5786L31.6618 62.4494C29.5253 61.9509 28.8008 61.3048 28.3178 59.4773C27.9648 58.1113 27.6675 53.2932 27.6675 48.5675V45.0416L30.3242 44.9309C31.7733 44.857 34.2627 44.8016 35.8418 44.8016C40.3377 44.8016 47.3602 44.5801 47.3602 44.4324C47.3602 44.3586 46.97 43.9894 46.487 43.6202L45.5953 42.9187L41.0437 43.0295C38.5356 43.1033 34.5042 43.1956 32.0891 43.251L27.6675 43.3618V34.741V26.1201L28.4664 26.6924C29.4139 27.3939 30.9373 28.6307 37.774 34.1872C56.0732 49.1028 61.8696 53.2563 69.7466 57.0037C83.6801 63.6308 96.6289 65.3291 106.68 61.8402C110.191 60.6403 112.309 59.3481 114.724 56.9852C118.235 53.5332 120 49.5458 120 45.097C120 39.1529 116.619 34.6117 109.541 31.1043C106.642 29.6645 104.134 28.8522 97.0562 27.0801C89.0491 25.0679 86.6711 24.2742 83.0299 22.4835C75.6173 18.7915 71.753 14.0473 72.1432 9.0816C72.4033 5.55575 74.8927 2.87906 78.8498 1.88221C80.2989 1.51302 83.55 1.51302 84.9805 1.88221C89.0491 2.93443 92.2631 6.12801 93.3406 10.1892C93.8051 11.9429 93.8794 14.5457 93.545 16.5763C93.2477 18.4039 92.2445 21.5236 91.4643 23.0558C91.2227 23.5358 91.0184 23.9603 91.0184 24.0157C91.0184 24.0526 91.3156 24.2003 91.6872 24.3111C92.5046 24.588 92.5046 24.588 93.9909 21.6344C99.0069 11.6106 95.7929 3.02673 86.0209 0.405418C84.9991 0.128517 80.9491 -0.111462 80.0574 0.0546799Z" fill="#1A1A1A"/>
</svg>
